<?xml version="1.0"?><svg version="1.2" baseProfile="tiny-ps" viewBox="0 0 300 300" xmlns="http://www.w3.org/2000/svg" xmlns:xlink="http://www.w3.org/1999/xlink"><title>FOIL</title><g><g fill="#fdfdfc" transform="matrix(.1 0 0 -.1 0 300)"><path d="M0 1500V0h3000v3000H0V1500z"/></g><g fill="#cccdcc" transform="matrix(.1 0 0 -.1 0 300)"><path d="m428 2163-28-4v-189h59l3 33 3 32 28 3c28 3 31 9 21 36l-6 16h-48v20h60v60l-32-1c-18-1-45-4-60-6zm116-36c-3-8-4-45-2-83l3-69 33-3 32-3v66l21-32c23-36 35-39 63-18l20 15-23 24-23 24 11 7 11 6v58l-37 10c-21 6-53 11-71 11h-33l-5-13zm81-46 5-10-10-6-10-6v15c0 18 6 21 15 7zm95-26v-85h70v170h-70v-85zm104 72c-3-8-4-45-2-83l3-69 58-3 57-3v51l-27 1-28 2 23 4 22 4v48l-22 4-23 4 28 2 27 1v50H829l-5-13zm142-33c-3-26-6-64-6-85v-39h60v30c0 17 2 30 5 30 2 0 25-14 50-32 24-17 47-29 51-26 3 4 8 43 11 87l6 81h-63v-70l-49 35c-26 19-51 35-53 35-3 0-8-21-12-46zm204-39v-88l45 6c25 4 59 14 76 22l30 16 11 24 11 24-7 25-6 25-20 11c-10 6-46 13-80 17l-60 6v-88zm95 25c8-13-4-50-16-50h-9v60h9c6 0 13-5 16-10zm118 44-33-16v-55l28-13 27-14-28-4-28-3 3-22 3-22 25-3 25-2 33 20 32 20v49l-27 15-28 15 23 1h22v50h-22c-13 0-38-8-55-16zm211 7c-12-5-29-20-38-33l-16-22v-57l25-24 24-25h93l29 29 29 29v60l-18 22-18 22-44 4-45 4-21-9zm71-76v-30l-19-3-18-4-10 10-11 11 7 26 7 26 22-3 22-3v-30zm95 0v-85h70v60h40v40h-40v20h50v50h-120v-85zm244 70c-3-8-4-22 0-30l5-15h41v-110h70v109l23 3 22 3v50l-78 3-77 3-6-16zm176-70v-86l33 3 32 3 3 28 3 27h39v-61l33 3 32 3v160l-32 3-33 3v-61h-39l-3 28-3 27-32 3-33 3v-86zm210 0v-85h120v50l-27 1-28 2 23 4 22 4v40l-22 9-23 9h21c27 1 33 8 27 32l-5 19h-108v-85zM724 1903c3-16 9-51 12-79l7-51-29-7c-15-4-40-16-55-27l-28-19-27-55-27-55 5-78 5-77 21-41c11-22 37-55 56-72l35-30-29-12c-50-21-73-59-59-99l9-23 14 11c8 6 36 17 63 24l50 13 34-18c18-10 44-18 56-18h23v11c0 19-22 54-66 101l-44 47v58l23 34 22 34 45 23c24 12 53 22 65 22l20-1 20-32 20-32 23-3 22-3v79l30 12 29 12 6 19 6 19-6 31-7 31-47 48-46 47-45 16c-25 9-57 18-71 21l-27 6-6 27c-4 16-12 41-18 56l-11 28-28 14c-15 8-33 15-40 15h-11l6-27zm246-283v-10h19c10 0 32-5 49-11l31-11-5-12c-7-19-50-36-92-36-20 0-54-4-74-9l-38-9 6 9c3 5 12 9 20 9h14v14c0 8-4 18-10 21-5 3-10 13-10 21v15l23 9c12 5 32 9 45 9l22 1v-10zm-265-37 17-16-7-33-6-34 40-6 41-6-20-28c-11-16-23-42-26-59-7-36-7-35-42-17-31 16-66 53-75 78l-6 18 24 16 25 16v30l-12-5c-7-2-23-7-35-11l-23-7v50l16 15 15 16h58l16-17zm538 318-42-19-21-43-22-42 5-40 5-39 28-29 28-29 38-11 38-10 34 6c44 9 91 38 111 69l16 24 1 41v41l-12 30-12 29-25 16-25 17-51 4-52 5-42-20zm115-84 13-28-11-34-12-35-25-7-26-6-19 23-18 22v54l16 22 16 23 26-3 27-3 13-28zm637-27c-36-55-65-104-65-109 0-6 14-18 32-27l32-17 14 22 14 21h87l14-20 14-21 37 18 37 17-6 14c-7 18-135 202-141 202-3 0-34-45-69-100zm74-49c-15-5-22 6-14 19l8 12 8-13 8-14-10-4zm-569 24v-115h90v84l26-35c14-19 29-41 34-48l8-15 36 25c20 13 36 27 36 30s-13 18-30 34l-30 29 14 15c7 9 16 24 19 33l6 17-18 22-18 22-54 8c-30 4-69 8-86 8l-33 1v-115zm110 36c0-11-4-23-10-26l-10-6v51h20v-19zm231 66-34-11-39-36-38-37v-32c0-60 28-88 105-102 22-4 50-5 63-2l22 5v68h-78l-11 14-12 15 10 20 11 19 35 12 35 12v18c0 49-11 55-69 37zm422-7-42-19-7-25c-9-37 0-54 40-73l35-16-5-9c-3-4-18-8-35-8h-29v-22c0-13 4-28 8-35l7-12 47 10 46 10 26 24 26 24v49l-16 13c-10 8-29 19-43 25l-26 11 38 8 38 7-5 15c-3 8-6 21-6 29v14h-27c-16 0-47-9-70-20zm-1083-440v-130h100v260h-100v-130zm565 15c-33-52-61-90-63-85l-4 10h-68v160h-90v-230h160v21l32-17 31-16 16 20 16 21 38 3 38 3 18-24 18-24 37 22 36 22-70 105c-39 57-74 104-78 104s-34-43-67-95zm80-45 6-10h-15c-9 0-16 5-16 10 0 6 4 10 9 10 6 0 13-4 16-10zm-452 116-31-14-17-26-16-25 11-20c6-12 24-28 41-36l30-16-6-9-6-10h-59l6-27c4-16 8-31 10-34l4-7 41 9c54 13 76 25 95 54l16 24-7 21-6 20-37 20-37 19 33 7 33 7-3 26-3 26-30 2-30 3-32-14zm603-63c-3-42-6-93-6-115v-38h79l3 45 3 45 73-51 72-50 4 13c2 7 7 61 10 121l7 107h-81v-99l-72 50c-39 27-75 49-78 49-4 0-10-34-14-77zm284-37v-116h36c19 0 55 5 78 11l44 11 35 29 36 30 7 33 6 34-11 21c-7 11-25 28-41 36l-30 16-80 6-80 6v-117zm139 30 11-14-9-24c-8-21-29-38-47-38-2 0-4 20-4 45v45h19c10 0 24-6 30-14zM419 1213c-1-5-1-82 0-173V875l111-3 110-3v102l-50-7-50-7v263H420l-1-7zm1214-66c-12-17-48-74-80-124l-59-93-36 38-37 37 20 24 19 23v65l-18 16c-24 22-94 36-179 37h-73V870h119l3 58 3 57 43-62c23-35 46-63 50-63s18 9 32 20c32 25 42 25 92-1l42-21 12 17c8 10 15 21 16 25 2 4 31 11 65 15l61 7 6-20c4-11 13-25 21-32l14-11 33 17c18 9 39 21 45 26l13 10-92 134c-50 74-96 134-102 134s-21-15-33-33zm-283-81c0-7-9-21-20-31l-20-18v84l20-11c11-6 20-17 20-24zm329-58 13-18h-53l11 21c7 11 13 19 14 17 1-1 8-11 15-20zm526 121c-9-28-15-51-14-53 2-1 16-7 32-14l27-12 20-32 20-33V870h115v119l21 28c11 15 34 35 52 43l32 15v16c0 14-19 79-26 87-6 9-85-41-105-66l-24-29-30 34-30 33-37 15-37 15-16-51zm-1516 34V875l56-3 55-3v301H690l-1-7zm191 6c-1-2-2-71-3-153l-2-148 85 4 85 4 42 22 43 22 6 24 6 25-7 20c-3 12-15 26-27 32l-20 11 22 23 22 24-6 25-6 26-31 16-31 15-89 6c-49 3-89 4-89 2zm128-71 11-11-10-19c-5-10-14-18-19-18h-10v60h8c4 0 13-5 20-12zm19-124 6-17-18-13c-10-8-22-14-27-14h-8v60h41l6-16zm863 46V870h109l3 62 3 63 48-68c26-37 50-67 53-67 13 0 84 56 84 66 0 7-16 26-35 43-41 35-42 42-15 66l20 18v64l-18 16c-24 22-94 36-179 37h-73v-150zm145 64 16-16-14-21c-7-12-19-23-25-25l-12-4v82h9c5 0 17-7 26-16z"/></g><g fill="#86908e" transform="matrix(.1 0 0 -.1 0 300)"><path d="M400 2064v-95l28 3 27 3 3 33 3 32h49v40h-51l3 18 3 17 28 3 27 3v39H400v-96zm458 69-28-4v-159h110v50l-27 1-28 2 23 4 22 4v39h-40v20h40v50l-22-1c-13-1-35-4-50-6zm532-11-35-17-4-20-3-19 28-23 29-23h-45v-50h14c7 0 27 5 45 11l31 11 10 18c16 29 12 39-22 60l-33 20h55v9c0 19-13 41-24 41-6 0-27-8-46-18zm204 2-31-15-12-25c-17-38-14-53 18-85l29-29h67l32 19 31 20 7 31 7 31-17 25c-28 43-78 54-131 28zm76-69v-23l-14-11-13-11-17 6-16 6v57l17 10 18 9 12-10c7-6 13-21 13-33zm127 78-38-4 3-77 3-77 28-3 27-3v61h50v40h-50v20h50v50l-17-2c-10-1-35-3-56-5zm625 0-33-4 3-77 3-77 53-3 52-3v51l-27 1-28 2 23 4 22 4v37l-22 7-23 8 28 4 27 4v49l-22-2c-13 0-38-3-56-5zm-1872-84v-80l27 3 28 3 5 30 6 30 19-32c22-38 23-38 54-17l22 16-22 24-23 24 12 12c7 7 12 20 12 30v17l-19 11-20 10H550v-81zm80 32c0-6-4-13-10-16l-10-6v15c0 9 5 16 10 16 6 0 10-4 10-9zm93-28 2-78h60l3 78 3 77h-70l2-77zm245 22c-1-30-2-65-2-77l-1-23 28-3 27-3v73l50-37c28-21 52-36 54-34s6 39 9 82l7 77h-59l-3-31-3-30-40 30c-22 17-46 31-52 31h-13l-2-55zm202-26v-81l43 7c74 13 127 53 127 96v18l-26 20-27 21h-117v-81zm97 25 6-17-10-15c-5-9-15-18-21-20l-12-4v72h31l6-16zm743 36v-20h39l3-57 3-58h58l1 55 1 55 23 3 22 3v39h-150v-20zm172-57 3-78 28-3 27-3v61h49l3-27 3-28 28-3 27-3v161h-60v-50h-50v50h-61l3-77zM724 1909c4-13 10-49 13-80l6-57-37-12-36-11-34-41-34-40-12-50-13-50 7-57 7-56 20-43 21-42 35-29 35-29-36-17-37-18-10-19c-6-10-9-29-7-41l3-22 15 4c8 1 37 9 64 16l49 13 44-20 44-20 15 6 14 5-7 18c-4 10-29 43-56 72l-49 55 5 44 5 45-9-14c-5-8-9-22-9-31v-18h-12c-7 0-29 12-49 26l-37 25-13 31-12 30 29 24 29 25-36-6-37-5-5 13-5 14 11 23 12 23 28 10 28 9 25-17 26-17-4-35-4-35 25-10 25-9 26 6 25 7-30-34-30-33 40 35c22 19 41 38 43 43 2 4 17 14 33 22l28 15-11 26-12 26 19 14 19 14h56v-21l13 2c20 4 81-13 90-25l9-11-7 30c-3 17-17 47-30 67l-25 37-47 27c-25 16-67 33-92 39l-46 12-15 46-15 46-20 20c-11 10-31 22-44 26l-24 7 7-23zm546-1-35-10-28-26-27-26-10-37-10-37 12-38 13-38 34-23 34-23h108l30 15 30 16 19 32 20 32v93l-26 31-25 30-37 11c-43 12-55 12-102-2zm90-77c5-11 10-32 10-48v-29l-16-22-15-22h-58l-11 19c-5 11-10 34-10 52v32l17 19 16 18h56l11-19zm498 39c-15-4-44-18-63-30l-35-22-15-28c-8-16-15-40-15-53v-24l23-20c12-11 32-26 44-32l22-11h101v60h-24c-14 0-36 4-50 10l-26 10v37l18 16c9 8 29 19 45 22l27 7v12c0 20-12 56-19 55-3 0-18-4-33-9zm133-90c-35-56-62-102-60-104s18-11 36-20l32-16 6 19 6 19 46 7 47 7 18-26 19-25 34 20 34 20-67 99c-37 55-72 99-77 100-6 0-39-45-74-100zm78-39c-15-5-22 6-14 19l8 12 8-13 8-14-10-4zm212 125-35-12-19-26-20-26 6-16c4-9 22-26 42-37l35-21-6-9c-3-5-19-9-36-9h-30l6-22c3-13 6-26 6-30 0-26 102 5 133 40l19 20-4 24-3 23-38 18-37 19 6 9c3 5 16 9 30 9h24v60l-22-1c-13 0-39-6-57-13zm-781-106v-110h80v103l41-56 40-57 30 22c16 12 29 24 29 27s-12 17-27 33l-26 28 17 19 17 19-3 28-3 29-25 12-25 13h-145v-110zm115 50 6-10-11-20c-6-11-15-20-20-20h-10v60h14c8 0 18-4 21-10zm-569-255-20-15h11c6 0 16 7 23 15 16 19 11 19-14 0zm144-136v-130l42 3 42 3 1 128v127h-85v-131zm-237 114-23-4v-15c0-8 11-26 25-40l26-25 12 4 12 4 6 41 5 42-20-1c-12-1-31-4-43-6zm-65-10c6-2 18-2 25 0l12 5h-50l13-5zm499-17c-20-8-44-19-53-27l-15-12 3-31 3-31 38-21 37-21-7-6c-3-4-19-7-35-7h-28v-60h28c15 0 46 9 69 20l42 19 7 25c9 37 0 54-40 73l-35 16 5 9c3 4 19 8 36 8h30l-6 23c-3 12-6 25-6 30 0 11-30 8-73-7zm355-81-60-96-4 12-4 13h-35l-34 1v78l1 77h-86v-220h158l4 11 4 12 31-17 32-16 6 19 6 19 22 6c12 3 34 6 48 6h27l14-22 15-22 31 13 32 13v12c-1 16-123 189-136 193l-12 4-60-96zm82-30 5-15h-38l5 15c4 8 10 15 14 15s10-7 14-15zm162 113c-3-7-7-59-10-115l-5-103h79v45c0 25 2 45 5 45 2 0 34-21 70-46l66-46 7 6c5 6 22 207 17 213 0 1-17 4-36 5l-34 3-3-47-3-48-75 50-74 51-4-13zm284-98v-107l1-8 51 2 52 3 45 22 46 23 19 38 18 38-12 29-12 29-33 15-33 16h-142v-100zm121 40 19-11v-17c0-24-28-62-46-62h-14v100h11c6 0 19-5 30-10zM420 1045V870h220v90H530v260H420v-175zm1170 28c-38-60-75-117-84-128l-14-20-41 39-40 39 24 29 25 30v19c0 11-4 29-10 39l-10 18-32 11c-18 6-72 13-120 17l-88 7V870h99l3 68 3 67 49-72c27-40 51-73 53-73s19 11 37 25l33 25 47-26c26-14 48-25 50-23 1 2 10 16 19 32l17 27h119l16-31c9-16 19-29 23-27 59 29 82 43 82 51 0 13-174 266-183 267-4 0-39-48-77-107zm-251 18 14-9-7-26-6-25-20-11-20-11v91h13c6 0 18-4 26-9zm351-103c0-5-11-8-25-8h-25v11c0 6 5 20 11 31l12 21 13-24c7-13 13-27 14-31zm-1000 33V870h111l-3 148-3 147-52 3-53 3v-150zm190 0V870h50c27 0 73 5 102 11l52 12 28 27 28 28v41l-30 22-30 22 21 15 20 14-3 31-3 32-35 17-35 16-82 7-83 7v-151zm136 74 6-15-12-15c-7-8-16-15-21-15h-9v60h31l5-15zm0-109 19-15-11-18c-6-10-19-19-28-21l-16-3v71h8c5 0 17-6 28-14zm883 180c-3-3-4-70-3-148l3-143 50-3 50-3 3 67 3 67 49-71 49-71 11 6c6 4 26 18 44 31l33 25-40 41-40 41 25 28 24 28v20c0 11-4 29-10 39l-10 18-32 11c-39 12-201 26-209 17zm141-81 12-14-6-18c-3-10-15-24-26-31l-20-12v90h14c7 0 19-7 26-15zm167 40-16-45 35-16 35-17 14-28 15-28V870h108l4 65 4 65 20 27 21 28 29 10c16 5 30 10 32 11s-2 22-9 48l-11 46h-16c-25 0-83-41-102-72l-18-29-21 34-21 35-34 16c-19 9-39 16-44 16h-10l-15-45z"/></g><g fill="#09980d" transform="matrix(.1 0 0 -.1 0 300)"><path d="M400 2070v-90h60v60h50v40h-50v40h50v40H400v-90zm150-15v-75h50v30c0 39 10 38 38-5l22-35 20 12c25 16 25 20 0 43l-20 18 16 18 16 18-6 19-7 20-22 6c-12 3-41 6-64 6h-43v-75zm77 11c-4-9-11-16-17-16h-10v18c0 10 3 22 7 26l7 6 9-9 10-10-6-15zm103-11v-75h50v150h-50v-75zm100 0v-75h100v30h-19c-11 0-23 5-26 11l-7 10 21 6 21 5v28h-42l4 13c3 6 14 13 26 15l22 3v29H830v-75zm140 0v-75h47l-5 30-4 30h9c6 0 29-13 51-30 23-16 46-30 51-30h9l4 75 3 75h-45v-60h-10c-6 0-29 14-52 30-22 17-45 30-50 30h-8v-75zm205 0-1-75h33c19 0 49 6 68 14l33 14 11 20c6 12 11 32 11 47v26l-35 15-34 14h-86v-75zm102 20 5-16-17-19c-10-11-22-20-27-20h-8v70h41l6-15zm108 43c-23-13-35-28-35-45v-12l33-18 32-17-27-10-28-10v-11c0-20 11-23 43-14l32 9 17 20 17 21-5 13c-3 7-17 19-32 26l-27 12 23 11 22 10v27h-22c-13 0-32-6-43-12zm191-9-26-20v-78l22-15 22-16h93l21 23 22 23v73l-22 15-22 16h-83l-27-21zm94-28 10-20-10-25-10-26h-39l-11 19-10 20 7 18c13 36 47 44 63 14zm100-26v-75h50v50h51l-3 18-3 17h-40l-3 18-3 17h51v30h-100v-75zm240 55v-20h50v-110h50v110h50v40h-150v-20zm175-55v-75h54l3 28 3 27 23 3 22 3v-61h60v150h-60v-48l-16-6c-9-3-20-6-25-6h-9v60h-56l1-75zm215 0v-75h100v30h-50v30h40v30h-40v30h50v30h-100v-75zM730 1916c0-8 5-38 11-65l10-50-8-16c-5-8-29-25-53-38l-45-22-22-33-22-33-11-54-11-54 10-57 11-57 25-42 25-43 31-20 32-20-22-7c-11-3-35-18-51-32l-30-25v-22c0-13 2-25 5-28s31 4 63 15l57 19 30-12c17-6 42-15 58-20l27-9v39l-50 55-50 55v31l-10-6-9-6-40 25c-42 27-71 61-71 85v15l28 23 27 22-40-2-39-2-4 17-3 18 25 25 25 25h48l16-17 15-18 4-35 3-35 38-3 38-3 50 29 51 29-11 7-11 7v49l23 5c12 3 33 6 47 8l25 2-3-13-2-13 10 6 10 6 36-11c19-7 38-10 41-7 10 11-11 51-49 93l-40 43-54 21c-30 11-63 20-73 20h-19l-18 57-19 57-32 19-33 19v-16zm511-23-34-17-18-30-19-31v-77l17-29 17-29 32-15 32-15h36c20 0 51 6 70 14l33 14 21 27c12 15 24 42 28 60l6 34-12 36-12 37-32 19-31 19h-100l-34-17zm111-50 18-16v-86l-26-20c-33-26-36-26-65-2l-24 19v84l24 19c29 23 49 24 73 2zm648-55c-33-51-60-98-60-104s12-16 27-23l28-13 14 21 13 21h88l12-20c16-24 26-25 56-2l22 17-65 98c-36 53-68 97-70 97-3 0-32-42-65-92zm80-45v-13h-20c-23 0-24 4-9 32l11 21 9-14c5-8 9-20 9-26zm224 125-41-9-22-20-22-21 3-26 3-27 32-15 33-15v-23l-30-7-30-7v-50l37 7c21 4 50 13 66 21l28 15 8 22 9 22-9 17c-5 10-23 25-39 33-17 9-30 20-30 25v10h60v18c0 9-4 22-8 28l-7 10-41-8zm-801-12c4-10 7-58 7-107v-89h70v171l20-11c24-13 25-28 4-51l-16-18 33-48c18-26 33-49 35-51 2-4 25 8 54 27l15 10-33 34-32 33 20 19c25 23 25 47 0 70l-20 18-82 5-81 5 6-17zm317-8-45-23-23-35-23-34 6-26c13-52 65-80 148-80h38l-3 28-3 27-35 3c-19 2-41 8-47 14l-13 10v47l30 16c16 8 36 15 46 15h16l-6 16c-3 9-6 22-6 30v14h-18c-10 0-38-10-62-22zm-630-423v-125h80v250h-80v-125zm-222 107-38-3v-10c0-6 14-25 31-42l31-31 10 17c5 10 8 30 6 45l-3 27-37-3zm443-22c-18-4-45-17-60-28l-26-19v-48l37-24 37-24-4-8c-3-4-19-10-35-14l-30-7v-11c0-7 4-18 9-25l8-14 40 11c22 6 52 21 67 32l27 21-3 27-3 26-37 18c-21 10-38 23-38 28v9h67l-5 30c-2 17-7 30-11 29-3-1-21-5-40-9zm380-12c-8-13-36-58-63-100l-48-78 31-16 32-16 8 14c5 7 9 16 9 21v7h99l14-21 15-21 31 17 32 16-7 12c-22 38-128 187-133 187-4 0-12-10-20-22zm39-115v-13h-20c-23 0-24 4-9 32l11 21 9-14c5-8 9-20 9-26zm-310 22v-105h29c15 0 49-3 75-6l46-7v63h-70v160h-80v-105zm466 68c-3-21-6-68-6-104v-67l30-4 30-5v49c0 26 2 48 5 48s38-23 78-51l72-50 6 58c4 32 7 82 8 111l1 52h-66l-3-42c-1-23-4-44-6-46s-33 17-68 42c-36 25-67 46-69 46-3 0-8-17-12-37zm284-67v-106h95l41 19 41 18 22 29 22 28-3 34-3 35-27 20-27 20-81 5-80 5v-107zm133 33 10-16-6-25-7-25-24-11c-32-14-36-8-36 50v49l26-3 27-3 10-16zM420 1046V883l68-6c37-4 84-7 105-7h37v90H530v250H420v-164zm1183 42c-93-144-115-180-111-183 9-7 68-35 76-35 5 0 15 11 22 25l13 25h125l19-26 20-26 19 6c10 3 29 14 42 24l22 17-85 125c-48 69-90 129-94 133l-8 8-60-93zm87-95v-13h-61l17 32 16 32 14-19c8-10 14-25 14-32zm524 142c-19-47-19-50 21-74l36-21 15-37 16-37-4-43-3-43h103l4 65 4 64 23 25c13 13 36 30 51 36l28 12-10 36c-5 20-13 41-18 45l-8 9-29-16c-17-8-45-32-63-53l-33-38-5 13c-2 7-15 26-28 41l-24 29-31 11-30 10-15-34zM690 1020V880h105v280H690v-140zm190-6V868l78 6 77 7 45 22 45 22v80l-30 14-29 14 22 10 22 10 7 25 6 25-10 16c-5 9-25 21-44 28l-34 12h-77l-78 1v-146zm140 66v-19l-20-11-20-11v82l20-11 20-11v-19zm-6-86 16-6v-46l-16-6c-9-3-20-6-25-6h-9v70h9c5 0 16-3 25-6zm186 27V880h100v221l23-3 22-3 3-23 4-24-21-22-21-22 45-67c25-37 49-67 53-67s25 12 46 26l38 26-41 42-41 42 21 20 21 21 1 33 2 32-28 22-28 21-100 3-99 4v-141zm700-1V880h100v221l23-3 22-3 3-23 4-24-22-23-22-23 49-70 49-69 42 30 42 31-42 44-43 43 16 9c9 5 22 23 29 39l12 29-12 22-12 22-33 14-34 14h-171v-140z"/></g><g fill="#424395" transform="matrix(.1 0 0 -.1 0 300)"><path d="M400 2070v-90h60v60h50v40h-50v40h50v40H400v-90zm150-15v-75h50v30c0 39 10 38 38-5l22-35 20 12c25 16 25 20 0 43l-20 18 16 18 16 18-6 19-7 20-22 6c-12 3-41 6-64 6h-43v-75zm77 11c-4-9-11-16-17-16h-10v18c0 10 3 22 7 26l7 6 9-9 10-10-6-15zm103-11v-75h50v150h-50v-75zm100 0v-75h100v30h-19c-11 0-23 5-26 11l-7 10 21 6 21 5v28h-42l4 13c3 6 14 13 26 15l22 3v29H830v-75zm140 0v-75h47l-5 30-4 30h9c6 0 29-13 51-30 23-16 46-30 51-30h9l4 75 3 75h-45v-60h-10c-6 0-29 14-52 30-22 17-45 30-50 30h-8v-75zm205 0-1-75h33c19 0 49 6 68 14l33 14 11 20c6 12 11 32 11 47v26l-35 15-34 14h-86v-75zm102 20 5-16-17-19c-10-11-22-20-27-20h-8v70h41l6-15zm108 43c-23-13-35-28-35-45v-12l33-18 32-17-27-10-28-10v-11c0-20 11-23 43-14l32 9 17 20 17 21-5 13c-3 7-17 19-32 26l-27 12 23 11 22 10v27h-22c-13 0-32-6-43-12zm191-9-26-20v-78l22-15 22-16h93l21 23 22 23v73l-22 15-22 16h-83l-27-21zm94-28 10-20-10-25-10-26h-39l-11 19-10 20 7 18c13 36 47 44 63 14zm100-26v-75h50v50h51l-3 18-3 17h-40l-3 18-3 17h51v30h-100v-75zm240 55v-20h50v-110h50v110h50v40h-150v-20zm175-55v-75h54l3 28 3 27 23 3 22 3v-61h60v150h-60v-48l-16-6c-9-3-20-6-25-6h-9v60h-56l1-75zm215 0v-75h100v30h-50v30h40v30h-40v30h50v30h-100v-75zM730 1916c0-8 5-38 11-65l10-50-8-16c-5-8-29-25-53-38l-45-22-22-33-22-33-11-54-11-54 10-57 11-57 25-42 25-43 31-20 32-20-22-7c-11-3-35-18-51-32l-30-25v-22c0-13 2-25 5-28s31 4 63 15l57 19 30-12c17-6 42-15 58-20l27-9v39l-50 55-50 55v31l-10-6-9-6-40 25c-42 27-71 61-71 85v15l28 23 27 22-40-2-39-2-4 17-3 18 25 25 25 25h48l16-17 15-18 4-35 3-35 38-3 38-3 50 29 51 29-11 7-11 7v49l23 5c12 3 33 6 47 8l25 2-3-13-2-13 10 6 10 6 36-11c19-7 38-10 41-7 10 11-11 51-49 93l-40 43-54 21c-30 11-63 20-73 20h-19l-18 57-19 57-32 19-33 19v-16zm238-384-38-3v-10c0-6 14-25 31-42l31-31 10 17c5 10 8 30 6 45l-3 27-37-3zm-548-486V883l68-6c37-4 84-7 105-7h37v90H530v250H420v-164zm1183 42c-93-144-115-180-111-183 9-7 68-35 76-35 5 0 15 11 22 25l13 25h125l19-26 20-26 19 6c10 3 29 14 42 24l22 17-85 125c-48 69-90 129-94 133l-8 8-60-93zm87-95v-13h-61l17 32 16 32 14-19c8-10 14-25 14-32zm524 142c-19-47-19-50 21-74l36-21 15-37 16-37-4-43-3-43h103l4 65 4 64 23 25c13 13 36 30 51 36l28 12-10 36c-5 20-13 41-18 45l-8 9-29-16c-17-8-45-32-63-53l-33-38-5 13c-2 7-15 26-28 41l-24 29-31 11-30 10-15-34zM690 1020V880h105v280H690v-140zm190-6V868l78 6 77 7 45 22 45 22v80l-30 14-29 14 22 10 22 10 7 25 6 25-10 16c-5 9-25 21-44 28l-34 12h-77l-78 1v-146zm140 66v-19l-20-11-20-11v82l20-11 20-11v-19zm-6-86 16-6v-46l-16-6c-9-3-20-6-25-6h-9v70h9c5 0 16-3 25-6zm186 27V880h100v221l23-3 22-3 3-23 4-24-21-22-21-22 45-67c25-37 49-67 53-67s25 12 46 26l38 26-41 42-41 42 21 20 21 21 1 33 2 32-28 22-28 21-100 3-99 4v-141zm700-1V880h100v221l23-3 22-3 3-23 4-24-22-23-22-23 49-70 49-69 42 30 42 31-42 44-43 43 16 9c9 5 22 23 29 39l12 29-12 22-12 22-33 14-34 14h-171v-140z"/></g><g fill="#050505" transform="matrix(.1 0 0 -.1 0 300)"><path d="M736 1883c4-21 8-54 8-73l1-34-47-23-47-23-27-39-26-40-5-42-6-43 23 22 24 22h26c14 0 34-6 44-13l19-14 1-39 1-39 38-3 38-3 45 26 45 27-6 16c-7 19-8 22-6 39l1 12 38 10c20 6 43 11 51 11h13l-5-14-6-15 15 6 14 5 31-12c38-16 45-9 29 30l-12 30-39 35c-41 37-88 60-145 71l-35 6-12 45-12 45-24 24c-13 13-30 24-38 24h-15l8-37zm-113-361-33-3v-18c0-27 29-104 48-126 9-11 30-30 45-42l28-22-36-17-36-17-16-23-15-23 7-21 7-21 11 9c7 5 35 15 64 21l51 13 31-16c16-9 39-16 51-16h20v31l-50 53c-27 29-50 58-50 63 0 6-11 14-25 17l-24 6-41 39-40 38v41l23 15c27 18 22 23-20 19zm314-12c3-11 17-30 31-41l26-20 7 18c4 10 8 28 8 41l1 22h-78l5-20z"/></g></g></svg>